<svg width="1703" height="1047" viewBox="0 0 1703 1047" fill="none" xmlns="http://www.w3.org/2000/svg">
<g opacity="0.8">
<mask id="mask0_754_27" style="mask-type:alpha" maskUnits="userSpaceOnUse" x="0" y="0" width="1703" height="1047">
<circle opacity="0.8" cx="428.273" cy="253.574" r="0.651859" fill="white"/>
<circle opacity="0.8" cx="681.195" cy="430.878" r="0.651859" fill="white"/>
<circle opacity="0.8" cx="908.041" cy="563.858" r="0.651859" fill="white"/>
<circle opacity="0.8" cx="1149.23" cy="730.734" r="0.651859" fill="white"/>
<circle opacity="0.8" cx="1369.55" cy="522.139" r="0.651859" fill="white"/>
<circle opacity="0.8" cx="1020.16" cy="369.604" r="0.651859" fill="white"/>
<circle opacity="0.8" cx="1458.21" cy="171.439" r="0.651859" fill="white"/>
<circle opacity="0.8" cx="1463.42" cy="326.582" r="0.651859" fill="white"/>
<circle opacity="0.8" cx="1185.73" cy="287.47" r="0.651859" fill="white"/>
<circle opacity="0.8" cx="748.988" cy="20.2085" r="0.651859" fill="white"/>
<circle opacity="0.8" cx="1284.81" cy="12.3862" r="0.651859" fill="white"/>
<circle opacity="0.8" cx="1597.71" cy="0.651859" r="0.651859" fill="white"/>
<circle opacity="0.5" cx="501.281" cy="316.152" r="0.651859" fill="white"/>
<circle opacity="0.5" cx="981.048" cy="626.437" r="0.651859" fill="white"/>
<circle opacity="0.5" cx="1222.23" cy="793.312" r="0.651859" fill="white"/>
<circle opacity="0.5" cx="1442.56" cy="584.717" r="0.651859" fill="white"/>
<circle opacity="0.5" cx="1093.17" cy="432.183" r="0.651859" fill="white"/>
<circle opacity="0.5" cx="874.144" cy="231.41" r="0.651859" fill="white"/>
<circle opacity="0.5" cx="1228.75" cy="129.72" r="0.651859" fill="white"/>
<circle opacity="0.5" cx="1531.22" cy="234.017" r="0.651859" fill="white"/>
<circle opacity="0.5" cx="1536.43" cy="389.16" r="0.651859" fill="white"/>
<circle opacity="0.5" cx="821.996" cy="82.7866" r="0.651859" fill="white"/>
<circle opacity="0.5" cx="1357.82" cy="74.9644" r="0.651859" fill="white"/>
<circle opacity="0.5" cx="1670.71" cy="63.23" r="0.651859" fill="white"/>
<circle opacity="0.8" cx="1253.53" cy="887.179" r="0.651859" fill="white"/>
<circle opacity="0.8" cx="1473.85" cy="678.585" r="0.651859" fill="white"/>
<circle opacity="0.8" cx="1124.46" cy="526.05" r="0.651859" fill="white"/>
<circle opacity="0.8" cx="905.433" cy="325.277" r="0.651859" fill="white"/>
<circle opacity="0.8" cx="1562.51" cy="327.885" r="0.651859" fill="white"/>
<circle opacity="0.8" cx="1567.72" cy="483.027" r="0.651859" fill="white"/>
<circle opacity="0.8" cx="853.285" cy="176.654" r="0.651859" fill="white"/>
<circle opacity="0.8" cx="1702" cy="157.097" r="0.651859" fill="white"/>
<circle cx="681.195" cy="587.325" r="0.651859" fill="white"/>
<circle cx="1149.23" cy="887.179" r="0.651859" fill="white"/>
<circle cx="1369.55" cy="678.585" r="0.651859" fill="white"/>
<circle cx="1020.16" cy="526.05" r="0.651859" fill="white"/>
<circle cx="801.134" cy="325.277" r="0.651859" fill="white"/>
<circle cx="1155.75" cy="223.587" r="0.651859" fill="white"/>
<circle cx="1458.21" cy="327.885" r="0.651859" fill="white"/>
<circle cx="1463.42" cy="483.027" r="0.651859" fill="white"/>
<circle cx="1185.73" cy="443.916" r="0.651859" fill="white"/>
<circle cx="748.988" cy="176.654" r="0.651859" fill="white"/>
<circle cx="1597.71" cy="157.097" r="0.651859" fill="white"/>
<circle opacity="0.3" cx="313.546" cy="357.871" r="0.651859" fill="white"/>
<circle opacity="0.3" cx="566.466" cy="535.176" r="0.651859" fill="white"/>
<circle opacity="0.3" cx="793.312" cy="668.156" r="0.651859" fill="white"/>
<circle opacity="0.3" cx="1034.5" cy="835.031" r="0.651859" fill="white"/>
<circle opacity="0.3" cx="1254.83" cy="626.437" r="0.651859" fill="white"/>
<circle opacity="0.3" cx="905.433" cy="473.902" r="0.651859" fill="white"/>
<circle opacity="0.3" cx="686.408" cy="273.129" r="0.651859" fill="white"/>
<circle opacity="0.3" cx="1041.02" cy="171.439" r="0.651859" fill="white"/>
<circle opacity="0.3" cx="1343.48" cy="275.736" r="0.651859" fill="white"/>
<circle opacity="0.3" cx="1348.69" cy="430.878" r="0.651859" fill="white"/>
<circle opacity="0.3" cx="1071" cy="391.767" r="0.651859" fill="white"/>
<circle opacity="0.3" cx="634.261" cy="124.505" r="0.651859" fill="white"/>
<circle opacity="0.3" cx="1170.09" cy="116.683" r="0.651859" fill="white"/>
<circle opacity="0.3" cx="1482.98" cy="104.949" r="0.651859" fill="white"/>
<circle opacity="0.67" cx="261.396" cy="243.143" r="0.651859" fill="white"/>
<circle opacity="0.67" cx="514.318" cy="420.449" r="0.651859" fill="white"/>
<circle opacity="0.67" cx="741.166" cy="553.428" r="0.651859" fill="white"/>
<circle opacity="0.67" cx="1202.68" cy="511.709" r="0.651859" fill="white"/>
<circle opacity="0.67" cx="988.871" cy="56.7124" r="0.651859" fill="white"/>
<circle opacity="0.67" cx="1291.33" cy="161.009" r="0.651859" fill="white"/>
<circle opacity="0.67" cx="1296.55" cy="316.152" r="0.651859" fill="white"/>
<circle opacity="0.67" cx="1018.85" cy="277.041" r="0.651859" fill="white"/>
<circle opacity="0.67" cx="582.111" cy="9.77686" r="0.651859" fill="white"/>
<circle opacity="0.9" cx="355.263" cy="295.292" r="0.651859" fill="white"/>
<circle opacity="0.9" cx="608.187" cy="472.598" r="0.651859" fill="white"/>
<circle opacity="0.9" cx="835.031" cy="605.578" r="0.651859" fill="white"/>
<circle opacity="0.9" cx="1296.55" cy="563.858" r="0.651859" fill="white"/>
<circle opacity="0.9" cx="947.152" cy="411.323" r="0.651859" fill="white"/>
<circle opacity="0.9" cx="728.128" cy="210.55" r="0.651859" fill="white"/>
<circle opacity="0.9" cx="1082.74" cy="108.861" r="0.651859" fill="white"/>
<circle opacity="0.9" cx="1385.2" cy="213.158" r="0.651859" fill="white"/>
<circle opacity="0.9" cx="1390.42" cy="368.3" r="0.651859" fill="white"/>
<circle opacity="0.9" cx="1112.73" cy="329.189" r="0.651859" fill="white"/>
<circle opacity="0.9" cx="675.98" cy="61.9272" r="0.651859" fill="white"/>
<circle opacity="0.9" cx="1211.8" cy="54.105" r="0.651859" fill="white"/>
<circle opacity="0.9" cx="1524.7" cy="42.3706" r="0.651859" fill="white"/>
<circle opacity="0.8" cx="168.645" cy="411.137" r="1.7703" fill="white"/>
<circle opacity="0.8" cx="421.567" cy="588.443" r="1.7703" fill="white"/>
<circle opacity="0.8" cx="648.415" cy="721.423" r="1.7703" fill="white"/>
<circle opacity="0.8" cx="889.602" cy="888.299" r="1.7703" fill="white"/>
<circle opacity="0.8" cx="1109.93" cy="679.704" r="1.7703" fill="white"/>
<circle opacity="0.8" cx="760.534" cy="527.169" r="1.7703" fill="white"/>
<circle opacity="0.8" cx="1198.58" cy="329.004" r="1.7703" fill="white"/>
<circle opacity="0.8" cx="1203.8" cy="484.145" r="1.7703" fill="white"/>
<circle opacity="0.8" cx="926.106" cy="445.034" r="1.7703" fill="white"/>
<circle opacity="0.8" cx="489.36" cy="177.772" r="1.7703" fill="white"/>
<circle opacity="0.8" cx="1025.19" cy="169.95" r="1.7703" fill="white"/>
<circle opacity="0.8" cx="1338.08" cy="158.217" r="1.7703" fill="white"/>
<circle opacity="0.5" cx="241.655" cy="473.716" r="1.7703" fill="white"/>
<circle opacity="0.5" cx="721.423" cy="784.001" r="1.7703" fill="white"/>
<circle opacity="0.5" cx="962.61" cy="950.878" r="1.7703" fill="white"/>
<circle opacity="0.5" cx="1182.94" cy="742.282" r="1.7703" fill="white"/>
<circle opacity="0.5" cx="833.544" cy="589.747" r="1.7703" fill="white"/>
<circle opacity="0.5" cx="614.518" cy="388.974" r="1.7703" fill="white"/>
<circle opacity="0.5" cx="969.13" cy="287.284" r="1.7703" fill="white"/>
<circle opacity="0.5" cx="1271.59" cy="391.583" r="1.7703" fill="white"/>
<circle opacity="0.5" cx="1276.81" cy="546.724" r="1.7703" fill="white"/>
<circle opacity="0.5" cx="562.368" cy="240.35" r="1.7703" fill="white"/>
<circle opacity="0.5" cx="1098.2" cy="232.528" r="1.7703" fill="white"/>
<circle opacity="0.5" cx="1411.09" cy="220.795" r="1.7703" fill="white"/>
<circle opacity="0.8" cx="993.899" cy="1044.74" r="1.7703" fill="white"/>
<circle opacity="0.8" cx="1214.23" cy="836.149" r="1.7703" fill="white"/>
<circle opacity="0.8" cx="864.833" cy="683.614" r="1.7703" fill="white"/>
<circle opacity="0.8" cx="645.807" cy="482.843" r="1.7703" fill="white"/>
<circle opacity="0.8" cx="1302.88" cy="485.45" r="1.7703" fill="white"/>
<circle opacity="0.8" cx="1308.1" cy="640.593" r="1.7703" fill="white"/>
<circle opacity="0.8" cx="593.657" cy="334.219" r="1.7703" fill="white"/>
<circle opacity="0.8" cx="1442.38" cy="314.663" r="1.7703" fill="white"/>
<circle cx="421.567" cy="744.889" r="1.7703" fill="white"/>
<circle cx="889.602" cy="1044.74" r="1.7703" fill="white"/>
<circle cx="1109.93" cy="836.149" r="1.7703" fill="white"/>
<circle cx="760.532" cy="683.614" r="1.7703" fill="white"/>
<circle cx="541.509" cy="482.843" r="1.7703" fill="white"/>
<circle cx="896.12" cy="381.152" r="1.7703" fill="white"/>
<circle cx="1198.58" cy="485.45" r="1.7703" fill="white"/>
<circle cx="1203.8" cy="640.593" r="1.7703" fill="white"/>
<circle cx="926.106" cy="601.48" r="1.7703" fill="white"/>
<circle cx="489.36" cy="334.219" r="1.7703" fill="white"/>
<circle cx="1338.08" cy="314.663" r="1.7703" fill="white"/>
<circle opacity="0.3" cx="53.9187" cy="515.434" r="1.7703" fill="white"/>
<circle opacity="0.3" cx="306.841" cy="692.741" r="1.7703" fill="white"/>
<circle opacity="0.3" cx="533.688" cy="825.72" r="1.7703" fill="white"/>
<circle opacity="0.3" cx="774.876" cy="992.596" r="1.7703" fill="white"/>
<circle opacity="0.3" cx="995.204" cy="784.001" r="1.7703" fill="white"/>
<circle opacity="0.3" cx="645.807" cy="631.466" r="1.7703" fill="white"/>
<circle opacity="0.3" cx="426.782" cy="430.694" r="1.7703" fill="white"/>
<circle opacity="0.3" cx="781.391" cy="329.004" r="1.7703" fill="white"/>
<circle opacity="0.3" cx="1083.86" cy="433.302" r="1.7703" fill="white"/>
<circle opacity="0.3" cx="1089.07" cy="588.443" r="1.7703" fill="white"/>
<circle opacity="0.3" cx="811.38" cy="549.332" r="1.7703" fill="white"/>
<circle opacity="0.3" cx="374.634" cy="282.069" r="1.7703" fill="white"/>
<circle opacity="0.3" cx="910.462" cy="274.247" r="1.7703" fill="white"/>
<circle opacity="0.3" cx="1223.35" cy="262.514" r="1.7703" fill="white"/>
<circle opacity="0.67" cx="1.7703" cy="400.708" r="1.7703" fill="white"/>
<circle opacity="0.67" cx="254.692" cy="578.013" r="1.7703" fill="white"/>
<circle opacity="0.67" cx="481.538" cy="710.993" r="1.7703" fill="white"/>
<circle opacity="0.67" cx="943.055" cy="669.274" r="1.7703" fill="white"/>
<circle opacity="0.67" cx="729.245" cy="214.276" r="1.7703" fill="white"/>
<circle opacity="0.67" cx="1031.71" cy="318.574" r="1.7703" fill="white"/>
<circle opacity="0.67" cx="1036.92" cy="473.717" r="1.7703" fill="white"/>
<circle opacity="0.67" cx="759.229" cy="434.604" r="1.7703" fill="white"/>
<circle opacity="0.67" cx="322.485" cy="167.343" r="1.7703" fill="white"/>
<circle opacity="0.9" cx="95.6375" cy="452.857" r="1.7703" fill="white"/>
<circle opacity="0.9" cx="348.559" cy="630.163" r="1.7703" fill="white"/>
<circle opacity="0.9" cx="575.407" cy="763.141" r="1.7703" fill="white"/>
<circle opacity="0.9" cx="1036.92" cy="721.423" r="1.7703" fill="white"/>
<circle opacity="0.9" cx="687.524" cy="568.888" r="1.7703" fill="white"/>
<circle opacity="0.9" cx="468.501" cy="368.115" r="1.7703" fill="white"/>
<circle opacity="0.9" cx="823.112" cy="266.425" r="1.7703" fill="white"/>
<circle opacity="0.9" cx="1125.57" cy="370.722" r="1.7703" fill="white"/>
<circle opacity="0.9" cx="1130.79" cy="525.865" r="1.7703" fill="white"/>
<circle opacity="0.9" cx="853.098" cy="486.754" r="1.7703" fill="white"/>
<circle opacity="0.9" cx="416.352" cy="219.491" r="1.7703" fill="white"/>
<circle opacity="0.9" cx="952.182" cy="211.669" r="1.7703" fill="white"/>
<circle opacity="0.9" cx="1265.07" cy="199.936" r="1.7703" fill="white"/>
</mask>
<g mask="url(#mask0_754_27)">
<circle cx="833.5" cy="551.033" r="639.5" fill="url(#paint0_radial_754_27)"/>
</g>
</g>
<defs>
<radialGradient id="paint0_radial_754_27" cx="0" cy="0" r="1" gradientUnits="userSpaceOnUse" gradientTransform="translate(833.5 551.033) rotate(90) scale(639.5)">
<stop stop-color="#D9D9D9"/>
<stop offset="1" stop-color="#D9D9D9" stop-opacity="0"/>
</radialGradient>
</defs>
</svg>
